<?xml version="1.0" encoding="utf-8"?>
<!-- Generator: Adobe Illustrator 22.1.0, SVG Export Plug-In . SVG Version: 6.00 Build 0)  -->
<svg version="1.1" id="Calque_1" xmlns="http://www.w3.org/2000/svg" xmlns:xlink="http://www.w3.org/1999/xlink" x="0px" y="0px"
	 viewBox="0 0 62 87.5" style="enable-background:new 0 0 62 87.5;" xml:space="preserve">
<style type="text/css">
	.st0{fill:none;}
</style>
<rect x="-22.3" class="st0" width="100" height="100"/>
<path d="M48.2,12.5c-5.9,0-10.7,4.8-10.7,10.7H19.2l-2.4-10.9c0.9-0.4,1.5-1.2,1.5-2.3c0-1.4-1.1-2.5-2.5-2.5c0,0,0,0-0.1,0L15,4.1
	c-0.1-0.3-0.3-0.5-0.6-0.4c-0.3,0.1-0.5,0.3-0.4,0.6l0.8,3.5c-0.8,0.4-1.4,1.2-1.4,2.2c0,1.3,1.1,2.4,2.4,2.4l2.4,10.7H2.8L24,44.2
	v34c-5.5,0.1-9.8,1-9.8,2.1c0,1.2,5.1,2.1,11.3,2.1c6.3,0,11.3-0.9,11.3-2.1c0-1.1-4.2-1.9-9.8-2.1v-34l13.6-13.5
	c1.9,1.9,4.6,3.1,7.5,3.1c5.9,0,10.7-4.8,10.7-10.7S54.1,12.5,48.2,12.5z M41.9,29.5l6.2-6.1l-4.4,7.9L41.9,29.5z M45.7,32.1
	l2.5-8.8l0.1-0.1l2.5,8.9H45.7z M52.8,31.3l-4.5-8.1l0,0l8.1,4.5L52.8,31.3z M48.3,23.2L48.3,23.2L48.3,23.2l-9.1,0v-2.5L48.3,23.2
	L40,18.5l3.6-3.6L48.3,23.2l-2.6-9h5.1L48.3,23.2l4.5-8.2l3.6,3.6L48.3,23.2l8.9-2.6v5.1L48.3,23.2z"/>
</svg>
